<?xml version="1.0" encoding="UTF-8"?><svg id="a" xmlns="http://www.w3.org/2000/svg" viewBox="0 0 178.24 57.067"><path d="M49.02,34.26V5.233h7.385c2.37,0,4.246.237,5.627.711,1.382.474,2.409,1.08,3.081,1.816.671.737,1.112,1.514,1.323,2.33.21.816.316,1.58.316,2.291,0,.764-.112,1.56-.336,2.39-.224.829-.599,1.593-1.125,2.291-.527.698-1.25,1.257-2.172,1.678,1.975.5,3.376,1.363,4.206,2.587.829,1.224,1.244,2.587,1.244,4.087,0,1.027-.118,2.067-.355,3.12-.237,1.053-.731,2.008-1.481,2.863-.75.855-1.875,1.547-3.376,2.073-1.501.527-3.515.79-6.042.79h-8.293ZM53.364,17.555h3.752c1.369,0,2.422-.23,3.159-.691.737-.46,1.257-1.059,1.56-1.797.302-.737.454-1.514.454-2.33,0-.684-.152-1.31-.454-1.876-.303-.566-.843-1.02-1.619-1.362-.777-.342-1.876-.514-3.298-.514h-3.554v8.57ZM53.364,30.548h4.542c1.343,0,2.416-.158,3.219-.475.803-.315,1.415-.724,1.836-1.224.421-.5.697-1.046.83-1.639.131-.593.197-1.178.197-1.758,0-1.369-.461-2.442-1.382-3.219-.922-.776-2.37-1.165-4.344-1.165h-4.897v9.479Z" fill="#fff" stroke-width="0"/><path d="M81.128,34.655c-1.606,0-3.101-.382-4.482-1.145-1.382-.764-2.495-1.856-3.337-3.278-.843-1.422-1.264-3.12-1.264-5.095,0-1.896.361-3.554,1.086-4.976.724-1.422,1.75-2.527,3.081-3.317,1.329-.79,2.916-1.185,4.759-1.185,1.106,0,2.113.191,3.021.572.908.382,1.671.843,2.291,1.382.618.54,1.033,1.06,1.244,1.56l.079-3.041h4.068v18.127h-4.029l-.079-3.199c-.263.58-.705,1.146-1.323,1.698-.619.553-1.362,1.007-2.231,1.362-.869.355-1.83.533-2.883.533ZM81.839,31.101c.974,0,1.862-.23,2.666-.691.803-.46,1.448-1.112,1.935-1.955.487-.842.731-1.842.731-3.001v-.276c0-1.185-.244-2.218-.731-3.1-.487-.882-1.132-1.566-1.935-2.054-.803-.487-1.692-.73-2.666-.73-1.765,0-3.087.566-3.969,1.698-.882,1.132-1.323,2.527-1.323,4.186,0,1.686.441,3.094,1.323,4.226.882,1.132,2.205,1.699,3.969,1.699Z" fill="#fff" stroke-width="0"/><path d="M96.727,34.26v-18.127h4.187l.04,3.317c.474-1.079,1.243-1.981,2.31-2.705s2.351-1.086,3.851-1.086c1.948,0,3.41.401,4.384,1.204.974.804,1.626,1.942,1.955,3.417.329,1.475.494,3.226.494,5.252v8.728h-4.266v-8.609c0-2.106-.204-3.712-.612-4.818s-1.35-1.659-2.823-1.659c-.765,0-1.554.237-2.37.711-.816.474-1.501,1.159-2.054,2.054-.553.896-.829,2.001-.829,3.317v9.004h-4.266Z" fill="#fff" stroke-width="0"/><path d="M127.888,43.739c-1.027,0-2.009-.105-2.942-.316-.936-.211-1.745-.44-2.429-.69-.686-.251-1.146-.441-1.383-.573l.948-3.949c.632.421,1.408.81,2.33,1.165.921.355,2.04.533,3.356.533.605,0,1.23-.06,1.876-.178s1.257-.369,1.837-.75c.579-.382,1.046-.948,1.401-1.698.355-.751.533-1.745.533-2.982v-3.238c-.526.975-1.401,1.817-2.626,2.528-1.225.71-2.613,1.065-4.166,1.065-1.58,0-3.021-.389-4.325-1.165-1.303-.776-2.344-1.882-3.12-3.317-.776-1.435-1.165-3.126-1.165-5.075,0-1.869.362-3.508,1.087-4.917.724-1.408,1.75-2.514,3.08-3.318,1.329-.803,2.902-1.204,4.72-1.204,1.105,0,2.119.191,3.041.572.921.382,1.691.843,2.31,1.382.619.54,1.033,1.06,1.244,1.56l.079-3.041h4.028v18.009c0,2.975-.77,5.317-2.311,7.029-1.54,1.711-4.008,2.567-7.404,2.567ZM127.809,31.061c.974,0,1.862-.229,2.666-.69.803-.461,1.447-1.112,1.935-1.956.487-.842.73-1.842.73-3.001v-.276c0-1.185-.243-2.218-.73-3.1-.487-.882-1.132-1.566-1.935-2.054-.804-.487-1.692-.73-2.666-.73-1.765,0-3.088.566-3.97,1.698-.882,1.132-1.322,2.527-1.322,4.186,0,1.686.44,3.094,1.322,4.226.882,1.132,2.205,1.698,3.97,1.698Z" fill="#fff" stroke-width="0"/><path d="M142.658,34.26V5.233h4.226v29.027h-4.226Z" fill="#fff" stroke-width="0"/><path d="M160.272,34.655c-1.606,0-3.101-.382-4.482-1.145-1.383-.764-2.495-1.856-3.337-3.278-.844-1.422-1.265-3.12-1.265-5.095,0-1.896.362-3.554,1.087-4.976.724-1.422,1.75-2.527,3.08-3.317,1.329-.79,2.916-1.185,4.759-1.185,1.105,0,2.113.191,3.021.572.908.382,1.672.843,2.29,1.382.619.54,1.033,1.06,1.244,1.56l.079-3.041h4.068v18.127h-4.028l-.079-3.199c-.264.58-.705,1.146-1.323,1.698-.619.553-1.362,1.007-2.231,1.362s-1.83.533-2.883.533ZM160.983,31.101c.974,0,1.862-.23,2.666-.691.803-.46,1.447-1.112,1.935-1.955.487-.842.73-1.842.73-3.001v-.276c0-1.185-.243-2.218-.73-3.1-.487-.882-1.132-1.566-1.935-2.054-.804-.487-1.692-.73-2.666-.73-1.765,0-3.088.566-3.97,1.698-.882,1.132-1.322,2.527-1.322,4.186,0,1.686.44,3.094,1.322,4.226.882,1.132,2.205,1.699,3.97,1.699Z" fill="#fff" stroke-width="0"/><path d="M46.376,54.002v-9.714h3.297c1.031,0,1.89.217,2.579.649.688.434,1.206,1.018,1.553,1.751.347.734.52,1.549.52,2.442,0,.985-.189,1.843-.568,2.572-.378.73-.917,1.296-1.614,1.697s-1.521.602-2.47.602h-3.297ZM53.368,49.131c0-.775-.144-1.464-.431-2.065-.288-.603-.705-1.074-1.252-1.416-.547-.343-1.218-.514-2.011-.514h-2.34v8.018h2.34c.803,0,1.478-.178,2.025-.533s.962-.837,1.245-1.443.424-1.288.424-2.046Z" fill="#fff" stroke-width="0"/><path d="M60.373,54.139c-.511,0-.983-.098-1.416-.292-.433-.195-.807-.463-1.122-.803-.314-.341-.559-.73-.732-1.171-.173-.439-.26-.904-.26-1.395,0-.508.086-.981.26-1.422.173-.439.419-.83.739-1.17s.696-.607,1.129-.803c.433-.194.905-.293,1.416-.293s.98.099,1.409.293c.429.195.803.463,1.122.803s.565.73.739,1.17c.173.44.26.914.26,1.422,0,.49-.087.955-.26,1.395-.173.44-.417.83-.732,1.171-.314.34-.689.607-1.122.803-.433.194-.91.292-1.43.292ZM57.787,50.493c0,.525.116,1.003.349,1.434.232.43.545.77.937,1.019s.826.373,1.3.373.908-.126,1.3-.38.707-.6.944-1.039c.237-.439.355-.917.355-1.434,0-.524-.119-1.005-.355-1.439-.237-.435-.552-.779-.944-1.032-.392-.254-.826-.381-1.3-.381s-.905.132-1.293.395c-.388.262-.7.608-.937,1.039-.237.43-.356.912-.356,1.446Z" fill="#fff" stroke-width="0"/><path d="M69.937,54.139c-.52,0-.997-.098-1.43-.292-.433-.195-.812-.466-1.136-.81-.324-.345-.575-.739-.752-1.185-.178-.444-.267-.916-.267-1.415,0-.671.15-1.283.452-1.836.301-.554.72-.993,1.258-1.32.538-.326,1.159-.49,1.861-.49.666,0,1.254.153,1.765.459s.889.718,1.136,1.238l-.903.287c-.201-.364-.481-.65-.841-.855s-.759-.308-1.197-.308c-.474,0-.908.122-1.3.367-.392.244-.705.579-.937,1.005-.233.426-.349.91-.349,1.453,0,.535.119,1.02.356,1.454.237.435.552.781.944,1.039s.826.387,1.3.387c.31,0,.609-.055.896-.164.287-.109.538-.257.752-.444.214-.187.358-.39.431-.608l.917.273c-.128.337-.34.641-.636.909-.296.27-.643.479-1.04.63-.396.15-.823.226-1.279.226Z" fill="#fff" stroke-width="0"/><path d="M79.145,53.715c-.073.027-.187.077-.342.15s-.342.137-.561.191c-.219.055-.456.082-.711.082-.265,0-.513-.051-.746-.151-.232-.101-.417-.254-.554-.46-.137-.206-.205-.46-.205-.763v-5.125h-.985v-.738h.985v-2.408h.93v2.408h1.642v.738h-1.642v4.867c.019.257.112.449.281.577.168.129.362.192.582.192.255,0,.488-.043.698-.13.209-.086.337-.147.383-.185l.247.753Z" fill="#fff" stroke-width="0"/><path d="M84.59,54.139c-.511,0-.983-.098-1.416-.292-.433-.195-.807-.463-1.122-.803-.314-.341-.559-.73-.732-1.171-.173-.439-.26-.904-.26-1.395,0-.508.086-.981.26-1.422.173-.439.419-.83.739-1.17s.696-.607,1.129-.803c.433-.194.905-.293,1.416-.293s.98.099,1.409.293c.429.195.803.463,1.122.803s.565.73.739,1.17c.173.44.26.914.26,1.422,0,.49-.087.955-.26,1.395-.173.44-.417.83-.732,1.171-.314.34-.689.607-1.122.803-.433.194-.91.292-1.43.292ZM82.004,50.493c0,.525.116,1.003.349,1.434.232.43.545.77.937,1.019s.826.373,1.3.373.908-.126,1.3-.38.707-.6.944-1.039c.237-.439.355-.917.355-1.434,0-.524-.119-1.005-.355-1.439-.237-.435-.552-.779-.944-1.032-.392-.254-.826-.381-1.3-.381s-.905.132-1.293.395c-.388.262-.7.608-.937,1.039-.237.43-.356.912-.356,1.446Z" fill="#fff" stroke-width="0"/><path d="M94.62,47.695c-.621.019-1.166.191-1.637.521-.469.328-.799.779-.992,1.354v4.433h-.93v-7.101h.875v1.683c.248-.502.572-.907.979-1.218s.838-.483,1.293-.52c.092-.01.172-.014.24-.014s.125.004.172.014v.848Z" fill="#fff" stroke-width="0"/><path id="b" d="M7.002,36.866l13.159,12.633c5.383,5.168,13.967,4.993,19.135-.39,5.05-5.26,4.997-13.576-.031-18.775l-2.267-12.707c-.01-.054-.022-.106-.036-.157-.425-3.346-2.055-6.522-4.63-8.994-1.518-1.458-3.253-2.571-5.158-3.314-.067-.028-.134-.054-.203-.077-.033-.012-.065-.025-.098-.037l-.002.005c-1.125-.344-2.399-.058-3.269.849-1.232,1.284-1.191,3.324.093,4.556,1.284,1.232,3.324,1.191,4.556-.093.203-.212.371-.445.506-.691.468.341.916.716,1.344,1.126,4.38,4.205,5.015,10.676,1.416,14.425-3.599,3.749-10.091,3.378-14.471-.827-.428-.41-.821-.844-1.18-1.297.24-.144.466-.321.67-.533,1.232-1.284,1.191-3.324-.093-4.556-1.284-1.232-3.324-1.191-4.556.093-.871.907-1.105,2.191-.715,3.301l-.005.002c.013.032.028.064.041.097.026.067.055.134.085.199.82,1.874,2.003,3.561,3.521,5.019,2.655,2.549,6.016,4.064,9.488,4.283.079.024.161.044.245.055l12.604,1.728c3.628,3.972,3.599,10.154-.18,14.089-3.938,4.101-10.478,4.235-14.579.297l-13.159-12.633c.819-1.813.46-4.025-1.055-5.48-1.923-1.846-4.988-1.783-6.834.139-1.846,1.923-1.783,4.988.139,6.834,1.515,1.455,3.74,1.723,5.518.831ZM33.841,27.456c.503-.524.949-1.087,1.338-1.685l.639,3.581-3.602-.494c.58-.412,1.124-.88,1.626-1.403ZM3.715,33.711c-.641-.615-.662-1.637-.046-2.278.615-.641,1.637-.662,2.278-.046.641.615.662,1.637.046,2.278-.615.641-1.637.662-2.278.047Z" fill="#fff" stroke-width="0"/><path d="M171.963,45.06c-2.73-.005-5.07,1.267-5.937,3.039,0,0-31.998-.005-64.366-.005v3.059c32.363,0,64.351.005,64.351.005.862,1.772,3.193,3.054,5.923,3.059,3.464.005,6.292-2.043,6.307-4.571.005-2.523-2.809-4.581-6.277-4.586ZM171.938,51.163c-1.148-.005-2.089-.689-2.084-1.532,0-.838.941-1.522,2.099-1.517,1.158,0,2.089.684,2.089,1.527-.005.843-.946,1.522-2.104,1.522Z" fill="#fff" stroke-width="0"/></svg>